<?xml version="1.0" encoding="UTF-8"?>
<svg width="580px" height="468px" viewBox="0 0 580 468" version="1.1" xmlns="http://www.w3.org/2000/svg" xmlns:xlink="http://www.w3.org/1999/xlink">
    <!-- Generator: Sketch 57.1 (83088) - https://sketch.com -->
    <title>business_shop</title>
    <desc>Created with Sketch.</desc>
    <g id="Page-1" stroke="none" stroke-width="1" fill="none" fill-rule="evenodd">
        <g id="Desktop-HD" transform="translate(-730.000000, -227.000000)" fill-rule="nonzero">
            <g id="business_shop" transform="translate(730.000000, 227.000000)">
                <ellipse id="Oval" fill="#3F3D56" cx="293.5" cy="445.5" rx="286.5" ry="22.5"></ellipse>
                <polygon id="Path" fill="#A0616A" points="536.428571 403.666667 539 423.22245 521 425 523.571429 401"></polygon>
                <path d="M448.037984,133 C448.037984,133 449.860766,157.196504 449.860766,158.092687 C449.860766,158.98887 437.101272,220.824422 437.101272,220.824422 C437.101272,220.824422 418.873411,254.878787 437.101272,253.982618 C455.329132,253.086449 449.860766,221.720612 449.860766,221.720612 L469,169.7429 L460.797471,133 L448.037984,133 Z" id="Path" fill="#A0616A"></path>
                <polygon id="Path" fill="#A0616A" points="477.571429 403.666667 475 423.22245 493 425 490.428571 401"></polygon>
                <path d="M456.690328,218.48556 L452.197963,224.765375 C452.197963,224.765375 449.502546,251.678831 452.197963,260.650006 C454.893379,269.62118 460.284213,310.888502 460.284213,313.579847 C460.284213,316.271193 461.18268,318.065428 460.284213,318.962538 C459.385745,319.859649 456.690322,319.859656 458.487264,321.653884 C460.284206,323.448112 460.284213,328.83081 460.284213,328.83081 L460.284213,333.316377 L471.96436,399.70296 C471.96436,399.70296 464.776578,407.776996 470.167411,407.776996 C475.558244,407.776996 495.324655,407.776996 494.42616,398.805842 L492.629218,397.908725 C492.629218,397.908725 489.933802,338.699075 490.832269,336.007729 C491.730737,333.316384 490.832269,327.933692 490.832269,327.933692 C490.832269,327.933692 489.03532,325.242347 490.832269,324.345222 C492.629218,323.448098 492.629218,316.271186 492.629218,316.271186 L500.715468,261.547109 C500.715468,261.547109 507.90325,298.328864 512.395615,301.917327 C516.887981,305.50579 515.989506,314.476951 515.989506,314.476951 L519.583397,393.423151 C519.583397,393.423151 515.989506,402.394312 519.583397,404.188533 C523.177289,405.982755 538.451313,412.26257 539.349802,403.291423 C540.24829,394.320276 544.740635,316.271179 544.740635,312.682709 C544.740635,309.094239 543.842167,307.300018 544.740635,304.608672 C545.639102,301.917327 543.842167,301.917327 544.740635,301.917327 C545.639102,301.917327 542.943693,299.225981 542.943693,297.431746 L542.943693,253.473079 C542.943693,253.473079 543.842167,244.501925 544.740635,242.707697 C545.639102,240.913469 543.842167,239.119234 544.740635,236.427889 C545.639102,233.736543 542.943693,224.765382 542.943693,224.765382 L502.512444,214 L456.690328,218.48556 Z" id="Path" fill="#2F2E41"></path>
                <path d="M488.751744,419.485794 C488.751744,419.485794 493.283393,415 486.939081,415 C482.866042,415.082227 478.854354,415.998633 475.156794,417.691474 L470.625144,433.840317 C470.625144,433.840317 452.045376,448.643451 472.890969,446.849131 C493.736563,445.05481 490.564399,446.400554 490.564399,446.400554 C490.564399,446.400554 496.908712,444.606233 497.815036,442.81192 C498.721361,441.017606 496.00238,415 496.00238,415 C496.00238,415 493.283393,422.177268 488.751744,419.485794 Z" id="Path" fill="#2F2E41"></path>
                <path d="M527.68338,419.485808 C527.68338,419.485808 523.2283,415 529.465415,415 C533.469634,415.082241 537.413538,415.998647 541.048622,417.691488 L545.503696,433.840331 C545.503696,433.840331 563.769523,448.643451 543.276162,446.84913 C522.782801,445.05481 523.2283,446.400554 523.2283,446.400554 C523.2283,446.400554 516.991191,444.606233 516.100174,442.81192 C515.209156,441.017606 520.555254,415 520.555254,415 C520.555254,415 523.2283,422.177282 527.68338,419.485808 Z" id="Path" fill="#2F2E41"></path>
                <circle id="Oval" fill="#A0616A" cx="468.5" cy="38.5" r="23.5"></circle>
                <path d="M461,56.1110924 C461,56.1110924 464.599999,74.3333333 464.599999,77.0666667 C464.599999,79.8 479.899998,88 479.899998,88 L497,66.1333333 C497,66.1333333 486.200009,50.6444328 486.200009,47 L461,56.1110924 Z" id="Path" fill="#A0616A"></path>
                <path d="M473.965515,78.6911122 C473.965515,78.6911122 466.151387,76.620025 463.782589,73.1916853 C463.782589,73.1916853 439,97.4394523 439,101.903336 L458.724137,136.721678 C458.724137,136.721678 458.724137,149.220562 460.517244,150.113334 C462.310351,151.006107 460.517244,150.113334 460.517244,153.684445 C460.517244,157.255556 455.137938,180.467759 456.931038,184.038897 C458.724137,187.610035 460.517244,184.93167 458.724137,190.288339 C456.931031,195.645009 452.448278,224.213902 452.448278,224.213902 C452.448278,224.213902 468.586196,218.857239 491.896553,227.785013 C515.206911,236.712786 543,224.213902 543,224.213902 C543,224.213902 535.827588,208.143914 537.620694,202.787251 C539.413801,197.430588 533.137935,187.610028 533.137935,187.610028 L528.655182,105.474467 C528.655182,105.474467 534.931041,68.870573 530.448282,67.0850142 L521.482756,63.5138622 L492.771598,60 C492.771598,60 485.620687,77.7983396 473.965515,78.6911122 Z" id="Path" fill="#D0CDE1"></path>
                <path d="M448.292777,97 L439.053232,103.239127 C439.053232,103.239127 434.43346,116.60868 439.053232,122.847821 C443.673005,129.086962 445.520917,138 445.520917,138 L464,136.217388 L448.292777,97 Z" id="Path" fill="#D0CDE1"></path>
                <path d="M450.821088,14.4681141 L446.78578,12.8377097 C446.78578,12.8377097 455.223209,3.46296949 466.962337,4.27818211 L463.660638,0.609749633 C463.660638,0.609749633 471.731259,-2.65100358 479.068163,5.90852398 C482.925026,10.4080936 487.387469,15.6970853 490.169342,21.6550791 L494.490881,21.6550791 L492.687232,25.6631227 L499,29.6711593 L492.520561,28.9512088 C493.134295,32.4114554 492.924238,35.9693735 491.907713,39.3315884 L492.081392,42.499546 C492.081392,42.499546 484.570809,30.7719983 484.570809,29.1416008 L484.570809,33.2175875 C484.570809,33.2175875 480.535502,29.5492176 480.535502,27.1036353 L478.334438,29.9568343 L477.233913,25.4732309 L463.660645,29.9568343 L465.861702,26.2884643 L457.424273,27.5112867 L460.725973,23.0276833 C460.725973,23.0276833 451.188012,28.3264646 450.821095,32.810068 C450.454287,37.2936089 445.685338,43 445.685338,43 L443.484281,38.9240133 C443.484281,38.9240133 440.182602,20.5820663 450.821088,14.4681141 Z" id="Path" fill="#2F2E41"></path>
                <rect id="Rectangle" fill="#F2F2F2" x="101" y="195" width="356" height="250"></rect>
                <rect id="Rectangle" fill="#3F3D56" x="130" y="291" width="90" height="156"></rect>
                <rect id="Rectangle" fill="#F2F2F2" x="147" y="300" width="24" height="22"></rect>
                <rect id="Rectangle" fill="#F2F2F2" x="180" y="300" width="24" height="22"></rect>
                <rect id="Rectangle" fill="#F2F2F2" x="147" y="331" width="24" height="23"></rect>
                <rect id="Rectangle" fill="#F2F2F2" x="180" y="331" width="24" height="23"></rect>
                <circle id="Oval" fill="#0A71F2" cx="208.5" cy="378.5" r="5.5"></circle>
                <rect id="Rectangle" fill="#3F3D56" x="250" y="275" width="176" height="148"></rect>
                <polygon id="Path" fill="#3F3D56" points="493 243 63 243 91.6702018 182.999655 98.0864266 169.565374 106.480477 151.997202 112.896701 138.562921 120.334894 123 459.121479 123 463.514427 138.562921 467.308243 151.997202 472.269334 169.565374 476.06315 182.999655"></polygon>
                <rect id="Rectangle" fill="#0A71F2" x="256" y="337" width="6" height="38"></rect>
                <rect id="Rectangle" fill="#F2F2F2" x="256" y="343" width="6" height="5"></rect>
                <rect id="Rectangle" fill="#F2F2F2" x="256" y="365" width="6" height="5"></rect>
                <rect id="Rectangle" fill="#0A71F2" x="265" y="337" width="15" height="38"></rect>
                <rect id="Rectangle" fill="#F2F2F2" x="265" y="343" width="15" height="5"></rect>
                <rect id="Rectangle" fill="#F2F2F2" x="265" y="365" width="15" height="5"></rect>
                <rect id="Rectangle" fill="#0A71F2" x="284" y="337" width="6" height="38"></rect>
                <rect id="Rectangle" fill="#F2F2F2" x="284" y="343" width="6" height="5"></rect>
                <rect id="Rectangle" fill="#F2F2F2" x="284" y="365" width="6" height="5"></rect>
                <rect id="Rectangle" fill="#0A71F2" x="294" y="337" width="6" height="38"></rect>
                <rect id="Rectangle" fill="#F2F2F2" x="294" y="343" width="6" height="5"></rect>
                <rect id="Rectangle" fill="#F2F2F2" x="294" y="365" width="6" height="5"></rect>
                <polygon id="Rectangle" fill="#0A71F2" transform="translate(309.222760, 356.136248) rotate(-20.654110) translate(-309.222760, -356.136248) " points="306.130167 337.022976 312.325567 337.021319 312.315353 375.24952 306.119953 375.251176"></polygon>
                <polygon id="Rectangle" fill="#F2F2F2" transform="translate(305.307877, 345.742237) rotate(-20.654110) translate(-305.307877, -345.742237) " points="302.210798 343.418377 308.406198 343.41672 308.404955 348.066097 302.209555 348.067754"></polygon>
                <polygon id="Rectangle" fill="#F2F2F2" transform="translate(313.137653, 366.530269) rotate(-20.654110) translate(-313.137653, -366.530269) " points="310.040574 364.206409 316.235974 364.204753 316.234731 368.85413 310.039332 368.855786"></polygon>
                <rect id="Rectangle" fill="#0A71F2" x="406" y="337" width="15" height="38"></rect>
                <rect id="Rectangle" fill="#F2F2F2" x="406" y="343" width="15" height="5"></rect>
                <rect id="Rectangle" fill="#F2F2F2" x="406" y="365" width="15" height="5"></rect>
                <rect id="Rectangle" fill="#0A71F2" x="396" y="337" width="6" height="38"></rect>
                <rect id="Rectangle" fill="#F2F2F2" x="396" y="343" width="6" height="5"></rect>
                <rect id="Rectangle" fill="#F2F2F2" x="396" y="365" width="6" height="5"></rect>
                <rect id="Rectangle" fill="#0A71F2" x="386" y="337" width="6" height="38"></rect>
                <rect id="Rectangle" fill="#F2F2F2" x="386" y="343" width="6" height="5"></rect>
                <rect id="Rectangle" fill="#F2F2F2" x="386" y="365" width="6" height="5"></rect>
                <polygon id="Rectangle" fill="#0A71F2" transform="translate(376.849047, 356.136236) rotate(-69.345890) translate(-376.849047, -356.136236) " points="357.735775 353.043643 395.963976 353.033429 395.962319 359.228829 357.734119 359.239043"></polygon>
                <polygon id="Rectangle" fill="#F2F2F2" transform="translate(380.763936, 345.742217) rotate(-69.345890) translate(-380.763936, -345.742217) " points="378.440075 342.645138 383.089452 342.643896 383.087796 348.839296 378.438419 348.840538"></polygon>
                <polygon id="Rectangle" fill="#F2F2F2" transform="translate(372.934159, 366.530255) rotate(-69.345890) translate(-372.934159, -366.530255) " points="370.610299 363.433176 375.259676 363.431934 375.25802 369.627334 370.608643 369.628576"></polygon>
                <rect id="Rectangle" fill="#F2F2F2" x="250" y="375" width="176" height="4"></rect>
                <rect id="Rectangle" fill="#0A71F2" x="327" y="337" width="33" height="38"></rect>
                <rect id="Rectangle" fill="#F2F2F2" x="336" y="346" width="16" height="7"></rect>
                <rect id="Rectangle" fill="#F2F2F2" x="336" y="275" width="3" height="33"></rect>
                <circle id="Oval" fill="#F2F2F2" cx="338" cy="309" r="5"></circle>
                <polygon id="Path" fill="#0A71F2" points="468 151 107 151 113.419287 138 464.204373 138"></polygon>
                <polygon id="Path" fill="#0A71F2" points="476 181 92 181 98.4096658 168 472.210062 168"></polygon>
                <path d="M514.507969,104 C514.507969,104 509.351929,117.476866 510.428957,130.810935 C510.625941,133.198297 511.416797,135.495563 512.727214,137.486875 L512.727214,137.486875 L449.559992,167.969962 C449.559992,167.969962 421.018498,170.97373 428.141505,183.644442 C435.264511,196.315154 461.085416,177.309089 461.085416,177.309089 C461.085416,177.309089 528.753988,167.353527 534.096239,157.397972 C539.43849,147.442417 543,105.810077 543,105.810077 L514.507969,104 Z" id="Path" fill="#A0616A"></path>
                <path d="M517.262003,67 L530.680606,67 C530.680606,67 540.520926,68.787237 543.204646,86.6595723 C545.888367,104.531908 548.572087,109 545.888367,109 C543.204646,109 511,108.106382 511,107.212763 C511,106.319145 517.262003,67 517.262003,67 Z" id="Path" fill="#D0CDE1"></path>
                <circle id="Oval" fill="#0A71F2" cx="69" cy="267" r="69"></circle>
                <circle id="Oval" fill="#000000" opacity="0.1" cx="69" cy="266" r="59"></circle>
                <path d="M65.8634974,302 L65.8634974,293.388557 C61.3662248,293.303634 56.7137346,291.768377 54,289.636934 L55.8607914,283.924562 C59.0857471,286.263838 62.9967565,287.547877 67.0265489,287.590436 C72.5320037,287.590436 76.2539205,284.094836 76.2539205,279.23503 C76.2539205,274.545498 73.2297436,271.646854 67.491832,269.088736 C59.5827082,265.678445 54.6977612,261.756156 54.6977612,254.338659 C54.6977612,247.261683 59.2726426,241.890264 66.4064178,240.611415 L66.4064178,232 L71.213756,232 L71.213756,240.270482 C74.7985265,240.317854 78.2951412,241.352922 81.2940708,243.254456 L79.3553082,248.881898 C76.4791191,246.976191 73.0708795,245.964849 69.5854143,245.982834 C63.615053,245.982834 61.3662248,249.904724 61.3662248,253.315414 C61.3662248,257.748923 64.2351842,259.965681 70.9812779,263.035425 C78.9676338,266.616375 83,271.049884 83,278.638068 C83,285.373678 78.735177,291.683446 70.7484444,293.132122 L70.7484444,302 L65.8634974,302 Z" id="Path" fill="#F2F2F2"></path>
            </g>
        </g>
    </g>
</svg>