<?xml version="1.0" encoding="UTF-8"?>
<svg width="134px" height="42px" viewBox="0 0 134 42" version="1.1" xmlns="http://www.w3.org/2000/svg" xmlns:xlink="http://www.w3.org/1999/xlink">
    <!-- Generator: Sketch 58 (84663) - https://sketch.com -->
    <title>Carousel</title>
    <desc>Created with Sketch.</desc>
    <g id="Page-1" stroke="none" stroke-width="1" fill="none" fill-rule="evenodd">
        <g id="Artboard" transform="translate(-343.000000, -560.000000)">
            <g id="Carousel" transform="translate(344.000000, 561.000000)">
                <path d="M60.7166445,-6.21504185e-16 L69.9500221,6.21504185e-16 C75.2991346,-3.61111829e-16 77.238852,0.556953667 79.1944076,1.60279622 C81.1499631,2.64863878 82.6846946,4.18337022 83.7305371,6.13892578 C84.7763797,8.09448133 85.3333333,10.0341988 85.3333333,15.3833112 L85.3333333,24.6166888 C85.3333333,29.9658012 84.7763797,31.9055187 83.7305371,33.8610742 C82.6846946,35.8166298 81.1499631,37.3513612 79.1944076,38.3972038 C77.238852,39.4430463 75.2991346,40 69.9500221,40 L60.7166445,40 C55.3675321,40 53.4278147,39.4430463 51.4722591,38.3972038 C49.5167036,37.3513612 47.9819721,35.8166298 46.9361296,33.8610742 C45.890287,31.9055187 45.3333333,29.9658012 45.3333333,24.6166888 L45.3333333,15.3833112 C45.3333333,10.0341988 45.890287,8.09448133 46.9361296,6.13892578 C47.9819721,4.18337022 49.5167036,2.64863878 51.4722591,1.60279622 C53.4278147,0.556953667 55.3675321,3.61111829e-16 60.7166445,-6.21504185e-16 Z" id="Rectangle" fill="#0A71F2"></path>
                <path d="M54,8 L71.3333333,8 C72.069713,8 72.6666667,8.59695367 72.6666667,9.33333333 C72.6666667,10.069713 72.069713,10.6666667 71.3333333,10.6666667 L54,10.6666667 C53.2636203,10.6666667 52.6666667,10.069713 52.6666667,9.33333333 C52.6666667,8.59695367 53.2636203,8 54,8 Z" id="Rectangle" fill="#FFFFFF"></path>
                <path d="M54,14 L66.6666667,14 C67.4030463,14 68,14.5969537 68,15.3333333 C68,16.069713 67.4030463,16.6666667 66.6666667,16.6666667 L54,16.6666667 C53.2636203,16.6666667 52.6666667,16.069713 52.6666667,15.3333333 C52.6666667,14.5969537 53.2636203,14 54,14 Z" id="Rectangle" fill="#FFFFFF"></path>
                <path d="M106.716645,-6.21504185e-16 L115.950022,6.21504185e-16 C121.299135,-3.61111829e-16 123.238852,0.556953667 125.194408,1.60279622 C127.149963,2.64863878 128.684695,4.18337022 129.730537,6.13892578 C130.77638,8.09448133 131.333333,10.0341988 131.333333,15.3833112 L131.333333,24.6166888 C131.333333,29.9658012 130.77638,31.9055187 129.730537,33.8610742 C128.684695,35.8166298 127.149963,37.3513612 125.194408,38.3972038 C123.238852,39.4430463 121.299135,40 115.950022,40 L106.716645,40 C101.367532,40 99.4278147,39.4430463 97.4722591,38.3972038 C95.5167036,37.3513612 93.9819721,35.8166298 92.9361296,33.8610742 C91.890287,31.9055187 91.3333333,29.9658012 91.3333333,24.6166888 L91.3333333,15.3833112 C91.3333333,10.0341988 91.890287,8.09448133 92.9361296,6.13892578 C93.9819721,4.18337022 95.5167036,2.64863878 97.4722591,1.60279622 C99.4278147,0.556953667 101.367532,3.61111829e-16 106.716645,-6.21504185e-16 Z" id="Rectangle" stroke="#DEDEDE" stroke-width="1.71428571" fill="#FFFFFF"></path>
                <path d="M99.3333333,8 L116.666667,8 C117.403046,8 118,8.59695367 118,9.33333333 C118,10.069713 117.403046,10.6666667 116.666667,10.6666667 L99.3333333,10.6666667 C98.5969537,10.6666667 98,10.069713 98,9.33333333 C98,8.59695367 98.5969537,8 99.3333333,8 Z" id="Rectangle" fill="#DEDEDE"></path>
                <path d="M99.3333333,14 L112,14 C112.73638,14 113.333333,14.5969537 113.333333,15.3333333 C113.333333,16.069713 112.73638,16.6666667 112,16.6666667 L99.3333333,16.6666667 C98.5969537,16.6666667 98,16.069713 98,15.3333333 C98,14.5969537 98.5969537,14 99.3333333,14 Z" id="Rectangle" fill="#DEDEDE"></path>
                <path d="M15.3833112,-6.21504185e-16 L24.6166888,6.21504185e-16 C29.9658012,-3.61111829e-16 31.9055187,0.556953667 33.8610742,1.60279622 C35.8166298,2.64863878 37.3513612,4.18337022 38.3972038,6.13892578 C39.4430463,8.09448133 40,10.0341988 40,15.3833112 L40,24.6166888 C40,29.9658012 39.4430463,31.9055187 38.3972038,33.8610742 C37.3513612,35.8166298 35.8166298,37.3513612 33.8610742,38.3972038 C31.9055187,39.4430463 29.9658012,40 24.6166888,40 L15.3833112,40 C10.0341988,40 8.09448133,39.4430463 6.13892578,38.3972038 C4.18337022,37.3513612 2.64863878,35.8166298 1.60279622,33.8610742 C0.556953667,31.9055187 2.4074122e-16,29.9658012 -4.14336123e-16,24.6166888 L4.14336123e-16,15.3833112 C-2.4074122e-16,10.0341988 0.556953667,8.09448133 1.60279622,6.13892578 C2.64863878,4.18337022 4.18337022,2.64863878 6.13892578,1.60279622 C8.09448133,0.556953667 10.0341988,3.61111829e-16 15.3833112,-6.21504185e-16 Z" id="Rectangle" stroke="#DEDEDE" stroke-width="1.71428571" fill="#FFFFFF"></path>
                <path d="M8,8 L25.3333333,8 C26.069713,8 26.6666667,8.59695367 26.6666667,9.33333333 C26.6666667,10.069713 26.069713,10.6666667 25.3333333,10.6666667 L8,10.6666667 C7.26362033,10.6666667 6.66666667,10.069713 6.66666667,9.33333333 C6.66666667,8.59695367 7.26362033,8 8,8 Z" id="Rectangle" fill="#DEDEDE"></path>
                <path d="M8,14 L20.6666667,14 C21.4030463,14 22,14.5969537 22,15.3333333 C22,16.069713 21.4030463,16.6666667 20.6666667,16.6666667 L8,16.6666667 C7.26362033,16.6666667 6.66666667,16.069713 6.66666667,15.3333333 C6.66666667,14.5969537 7.26362033,14 8,14 Z" id="Rectangle" fill="#DEDEDE"></path>
            </g>
        </g>
    </g>
</svg>