<?xml version="1.0" encoding="UTF-8"?>
<svg width="126px" height="42px" viewBox="0 0 126 42" version="1.1" xmlns="http://www.w3.org/2000/svg" xmlns:xlink="http://www.w3.org/1999/xlink">
    <!-- Generator: Sketch 58 (84663) - https://sketch.com -->
    <title>Checklist</title>
    <desc>Created with Sketch.</desc>
    <g id="Page-1" stroke="none" stroke-width="1" fill="none" fill-rule="evenodd">
        <g id="Artboard" transform="translate(-158.000000, -559.000000)">
            <g id="Checklist" transform="translate(160.000000, 561.000000)">
                <g id="Group-4">
                    <g id="Group-3">
                        <path d="M10.1698953,-3.1382006e-16 L12.9070278,3.1382006e-16 C15.8660643,-2.29746122e-16 17.369276,0.392723739 18.7481934,1.13017682 C20.1271107,1.86762991 21.2092932,2.94981234 21.9467463,4.32872972 C22.6841993,5.70764709 23.0769231,7.21085883 23.0769231,10.1698953 L23.0769231,12.9070278 C23.0769231,15.8660643 22.6841993,17.369276 21.9467463,18.7481934 C21.2092932,20.1271107 20.1271107,21.2092932 18.7481934,21.9467463 C17.369276,22.6841993 15.8660643,23.0769231 12.9070278,23.0769231 L10.1698953,23.0769231 C7.21085883,23.0769231 5.70764709,22.6841993 4.32872972,21.9467463 C2.94981234,21.2092932 1.86762991,20.1271107 1.13017682,18.7481934 C0.392723739,17.369276 1.53164081e-16,15.8660643 -2.09213373e-16,12.9070278 L2.09213373e-16,10.1698953 C-1.53164081e-16,7.21085883 0.392723739,5.70764709 1.13017682,4.32872972 C1.86762991,2.94981234 2.94981234,1.86762991 4.32872972,1.13017682 C5.70764709,0.392723739 7.21085883,2.29746122e-16 10.1698953,-3.1382006e-16 Z" id="Rectangle" stroke="#0A71F2" stroke-width="2.30769231" fill="#0A71F2"></path>
                        <path d="M4.60753886,11.3447368 C4.18051345,11.7956041 4.18051345,12.5016596 4.60753886,12.952527 L8.53818491,17.1026311 C8.8303221,17.411079 9.31719257,17.4243015 9.62564053,17.1321643 C9.63575044,17.122589 9.64559849,17.112741 9.65517379,17.1026311 L18.4693842,7.79630065 C18.8964096,7.34543332 18.8964096,6.6393778 18.4693842,6.18851047 C18.0711191,5.76800914 17.4073777,5.74998317 16.9868763,6.14824833 C16.9730937,6.16130216 16.959668,6.17472782 16.9466142,6.18851047 L9.09667935,14.4767273 L9.09667935,14.4767273 L6.13030888,11.3447368 C5.73204371,10.9242355 5.06830233,10.9062095 4.647801,11.3044746 C4.63401834,11.3175285 4.62059268,11.3309541 4.60753886,11.3447368 Z" id="Path-3" fill="#FFFFFF" fill-rule="nonzero"></path>
                    </g>
                </g>
                <rect id="Rectangle" fill="#0A71F2" x="38.4615385" y="0" width="84.6153846" height="7.69230769" rx="3.84615385"></rect>
                <rect id="Rectangle" fill="#D8D8D8" x="38.4615385" y="16.1538462" width="73.0769231" height="7.69230769" rx="3.84615385"></rect>
                <rect id="Rectangle" fill="#D8D8D8" x="38.4615385" y="32.3076923" width="61.5384615" height="7.69230769" rx="3.84615385"></rect>
            </g>
        </g>
    </g>
</svg>