<?xml version="1.0" encoding="UTF-8"?>
<svg width="71px" height="60px" viewBox="0 0 71 60" version="1.1" xmlns="http://www.w3.org/2000/svg" xmlns:xlink="http://www.w3.org/1999/xlink">
    <!-- Generator: Sketch 57.1 (83088) - https://sketch.com -->
    <title>Coupon</title>
    <desc>Created with Sketch.</desc>
    <g id="Page-1" stroke="none" stroke-width="1" fill="none" fill-rule="evenodd">
        <g id="Desktop-HD" transform="translate(-505.000000, -432.000000)" fill="#0A71F2" fill-rule="nonzero">
            <path d="M516.896547,482.371156 C513.134059,482.022826 510.617428,479.559634 509.820079,475.056221 L505.210408,448.906571 C504.213723,443.308406 506.780188,439.650939 512.436379,438.655709 L549.064573,432.2116 C554.695846,431.21637 558.358666,433.754205 559.355351,439.35237 L560.102865,443.557214 L529.380033,443.557214 C521.381632,443.557214 516.896547,447.985984 516.896547,455.972699 L516.896547,482.371156 Z M529.903293,492 C524.147434,492 521.007875,488.865028 521.007875,483.16734 L521.007875,456.470314 C521.007875,450.797507 524.147434,447.637654 529.903293,447.637654 L567.104581,447.637654 C572.810606,447.637654 576,450.797507 576,456.470314 L576,483.16734 C576,488.840147 572.810606,492 567.104581,492 L529.903293,492 Z" id="Coupon"></path>
        </g>
    </g>
</svg>