
    <svg width="98px" height="40px" viewBox="0 0 98 40" version="1.1" xmlns="http://www.w3.org/2000/svg" xmlns:xlink="http://www.w3.org/1999/xlink">
    <!-- Generator: Sketch 57.1 (83088) - https://sketch.com -->
    <title>Combined Shape</title>
    <desc>Created with Sketch.</desc>
    <g id="Page-1" stroke="none" stroke-width="1" fill="none" fill-rule="evenodd">
        <g id="Desktop-HD" transform="translate(-50.000000, -50.000000)" fill="#0A71F2" fill-rule="nonzero">
            <path d="M51.9527252,57.3317906 C52.7406279,62.0695743 57.0429917,69.2643706 64.9323864,79.0820537 C66.210017,80.6724905 66.9507348,81.6570956 68.7324113,83.5403538 C67.5023109,85.5203966 66.156193,87.4110739 64.6940576,89.2123856 C64.6605385,89.2536803 64.6232224,89.2917421 64.582599,89.3260717 C64.2534923,89.6041892 63.7748353,89.5894753 63.4636486,89.3085506 L63.3831698,89.2253544 L62.9518364,88.7123936 C54.3957729,78.4885861 50.1177411,70.3540805 50.1177411,64.3088769 C50.1177411,61.9866372 50.5912574,59.520682 51.9527252,57.3317906 Z M131.269231,76.8461538 C132.023081,76.8461538 132.72692,76.9884601 133.380769,77.2730769 C134.034619,77.5576937 134.60769,77.9499975 135.1,78.45 C135.59231,78.9500025 135.980768,79.534612 136.265385,80.2038462 C136.550001,80.8730803 136.692308,81.5999961 136.692308,82.3846154 C136.692308,83.1692347 136.550001,83.8961505 136.265385,84.5653846 C135.980768,85.2346187 135.59231,85.8192283 135.1,86.3192308 C134.60769,86.8192333 134.034619,87.211537 133.380769,87.4961538 C132.72692,87.7807707 132.023081,87.9230769 131.269231,87.9230769 C130.515381,87.9230769 129.811542,87.7807707 129.157692,87.4961538 C128.503843,87.211537 127.930772,86.8192333 127.438462,86.3192308 C126.946151,85.8192283 126.557694,85.2346187 126.273077,84.5653846 C125.98846,83.8961505 125.846154,83.1692347 125.846154,82.3846154 C125.846154,81.5999961 125.98846,80.8730803 126.273077,80.2038462 C126.557694,79.534612 126.946151,78.9500025 127.438462,78.45 C127.930772,77.9499975 128.503843,77.5576937 129.157692,77.2730769 C129.811542,76.9884601 130.515381,76.8461538 131.269231,76.8461538 Z M106.423077,73.1538462 L106.423077,77.8846154 C106.623078,77.7153838 106.861537,77.5615392 107.138462,77.4230769 C107.369232,77.2999994 107.649998,77.1923082 107.980769,77.1 C108.31154,77.0076918 108.676921,76.9615385 109.076923,76.9615385 C109.738465,76.9615385 110.369228,77.0961525 110.969231,77.3653846 C111.569234,77.6346167 112.096152,78.011536 112.55,78.4961538 C113.003848,78.9807717 113.365383,79.5538428 113.634615,80.2153846 C113.903848,80.8769264 114.038462,81.5999961 114.038462,82.3846154 C114.038462,83.1692347 113.903848,83.8923044 113.634615,84.5538462 C113.365383,85.2153879 113.003848,85.7884591 112.55,86.2730769 C112.096152,86.7576947 111.569234,87.134614 110.969231,87.4038462 C110.369228,87.6730783 109.738465,87.8076923 109.076923,87.8076923 C108.615382,87.8076923 108.200002,87.7500006 107.830769,87.6346154 C107.461537,87.5192302 107.146155,87.3846154 106.884615,87.2307692 C106.576922,87.0615376 106.307692,86.8692318 106.076923,86.6538462 L105.615385,87.6923077 L103.307692,87.6923077 L103.307692,73.1538462 L106.423077,73.1538462 Z M117.923077,73.1538462 L117.923077,77.8846154 C118.123078,77.7153838 118.361537,77.5615392 118.638462,77.4230769 C118.869232,77.2999994 119.149998,77.1923082 119.480769,77.1 C119.81154,77.0076918 120.176921,76.9615385 120.576923,76.9615385 C121.238465,76.9615385 121.869228,77.0961525 122.469231,77.3653846 C123.069234,77.6346167 123.596152,78.011536 124.05,78.4961538 C124.503848,78.9807717 124.865383,79.5538428 125.134615,80.2153846 C125.403848,80.8769264 125.538462,81.5999961 125.538462,82.3846154 C125.538462,83.1692347 125.403848,83.8923044 125.134615,84.5538462 C124.865383,85.2153879 124.503848,85.7884591 124.05,86.2730769 C123.596152,86.7576947 123.069234,87.134614 122.469231,87.4038462 C121.869228,87.6730783 121.238465,87.8076923 120.576923,87.8076923 C120.115382,87.8076923 119.700002,87.7500006 119.330769,87.6346154 C118.961537,87.5192302 118.646155,87.3846154 118.384615,87.2307692 C118.076922,87.0615376 117.807692,86.8692318 117.576923,86.6538462 L117.115385,87.6923077 L114.807692,87.6923077 L114.807692,73.1538462 L117.923077,73.1538462 Z M92.6538462,73.1538462 C93.4076961,73.1538462 94.0961507,73.2769218 94.7192308,73.5230769 C95.3423108,73.769232 95.8769208,74.0999979 96.3230769,74.5153846 C96.7692308,74.9307713 97.1153834,75.419228 97.3615385,75.9807692 C97.6076935,76.5423105 97.7307692,77.1384584 97.7307692,77.7692308 C97.7307692,78.5846195 97.588463,79.269228 97.3038462,79.8230769 C97.0192293,80.3769258 96.7038479,80.8269213 96.3576923,81.1730769 C96.0115367,81.5192325 95.6923092,81.76923 95.4,81.9230769 L94.9615385,82.1538462 L98.1923077,87.6923077 L94.5,87.6923077 L91.8461538,82.8461538 L90.1153846,82.8461538 L90.1153846,87.6923077 L86.7692308,87.6923077 L86.7692308,73.1538462 L92.6538462,73.1538462 Z M101.846154,77.0769231 L101.846154,87.6923077 L98.7307692,87.6923077 L98.7307692,77.0769231 L101.846154,77.0769231 Z M143.346154,76.9615385 C143.976926,76.9615385 144.553844,77.0653836 145.076923,77.2730769 C145.600003,77.4807703 146.049998,77.7807673 146.426923,78.1730769 C146.803848,78.5653866 147.096153,79.0384588 147.303846,79.5923077 C147.51154,80.1461566 147.615385,80.7692273 147.615385,81.4615385 L147.615385,87.6923077 L144.5,87.6923077 L144.5,82.0384615 C144.5,81.3461504 144.319233,80.8076923 143.957692,80.4230769 C143.596152,80.0384615 143.12308,79.8461538 142.538462,79.8461538 C141.953843,79.8461538 141.480771,80.0384615 141.119231,80.4230769 C140.757691,80.8076923 140.576923,81.3461504 140.576923,82.0384615 L140.576923,87.6923077 L137.461539,87.6923077 L137.461539,77.0769231 L139.769231,77.0769231 L140.230769,78.1153846 C140.476924,77.8999989 140.761537,77.7076932 141.084615,77.5384615 C141.36154,77.3999993 141.692308,77.2692314 142.076923,77.1461538 C142.461539,77.0230763 142.884613,76.9615385 143.346154,76.9615385 Z M131.269231,79.7307692 C130.623074,79.7307692 130.076925,79.9692284 129.630769,80.4461538 C129.184613,80.9230793 128.961539,81.5692267 128.961539,82.3846154 C128.961539,83.2000041 129.184613,83.8461515 129.630769,84.3230769 C130.076925,84.8000024 130.623074,85.0384615 131.269231,85.0384615 C131.915388,85.0384615 132.461539,84.8000024 132.907692,84.3230769 C133.353848,83.8461515 133.576923,83.2000041 133.576923,82.3846154 C133.576923,81.5692267 133.353848,80.9230793 132.907692,80.4461538 C132.461539,79.9692284 131.915388,79.7307692 131.269231,79.7307692 Z M120.115385,79.8461538 C119.469228,79.8461538 118.923079,80.0807669 118.476923,80.55 C118.030767,81.0192331 117.807692,81.6307655 117.807692,82.3846154 C117.807692,83.1384653 118.030767,83.7499977 118.476923,84.2192308 C118.923079,84.6884639 119.469228,84.9230769 120.115385,84.9230769 C120.761542,84.9230769 121.307692,84.6884639 121.753846,84.2192308 C122.200002,83.7499977 122.423077,83.1384653 122.423077,82.3846154 C122.423077,81.6307655 122.200002,81.0192331 121.753846,80.55 C121.307692,80.0807669 120.761542,79.8461538 120.115385,79.8461538 Z M108.615385,79.8461538 C107.969228,79.8461538 107.423079,80.0807669 106.976923,80.55 C106.530767,81.0192331 106.307692,81.6307655 106.307692,82.3846154 C106.307692,83.1384653 106.530767,83.7499977 106.976923,84.2192308 C107.423079,84.6884639 107.969228,84.9230769 108.615385,84.9230769 C109.261542,84.9230769 109.807692,84.6884639 110.253846,84.2192308 C110.700002,83.7499977 110.923077,83.1384653 110.923077,82.3846154 C110.923077,81.6307655 110.700002,81.0192331 110.253846,80.55 C109.807692,80.0807669 109.261542,79.8461538 108.615385,79.8461538 Z M75.1336537,56.2291711 C80.7626164,63.1838586 74.4129574,74.6972608 69.7270878,82.0057258 C68.565968,80.626896 67.3954084,79.2714651 66.2446556,77.8407996 C65.6640957,77.1254668 65.1042701,76.4205012 64.5651787,75.7362698 C70.7647294,67.6291651 74.4818304,61.2446461 75.1336537,56.2291711 Z M92.6538462,76.3846154 L90.1153846,76.3846154 L90.1153846,79.6153846 L92.6538462,79.6153846 C93.2384645,79.6153846 93.6923061,79.4615385 94.0153846,79.1538462 C94.3384632,78.8461523 94.5,78.4615408 94.5,78 C94.5,77.5384615 94.3384632,77.1538462 94.0153846,76.8461538 C93.6923061,76.53846 93.2384645,76.3846154 92.6538462,76.3846154 Z M100.346154,72.4615385 C100.807695,72.4615385 101.211537,72.6346137 101.557692,72.9807692 C101.903848,73.3269248 102.076923,73.7307669 102.076923,74.1923077 C102.076923,74.6538485 101.903848,75.0576906 101.557692,75.4038462 C101.211537,75.7500017 100.807695,75.9230769 100.346154,75.9230769 C99.8846131,75.9230769 99.480771,75.7500017 99.1346154,75.4038462 C98.7884598,75.0576906 98.6153846,74.6538485 98.6153846,74.1923077 C98.6153846,73.7307669 98.7884598,73.3269248 99.1346154,72.9807692 C99.480771,72.6346137 99.8846131,72.4615385 100.346154,72.4615385 Z M119.423077,56.8461538 C120.146158,56.8461538 120.823074,56.9769218 121.453846,57.2384615 C122.084619,57.5000013 122.634613,57.8730745 123.103846,58.3576923 C123.573079,58.8423101 123.942306,59.4269197 124.211539,60.1115385 C124.480771,60.7961573 124.615385,61.553842 124.615385,62.3846154 C124.615385,62.5076929 124.607692,62.6269225 124.592308,62.7423077 C124.576923,62.8576929 124.561539,62.9692302 124.546154,63.0769231 C124.530769,63.2000006 124.515385,63.3153841 124.5,63.4230769 L117.230769,63.4230769 C117.353847,63.8230789 117.603844,64.192306 117.980769,64.5307692 C118.357694,64.8692325 118.838459,65.0384615 119.423077,65.0384615 C119.715386,65.0384615 119.965384,65.0038465 120.173077,64.9346154 C120.38077,64.8653843 120.546153,64.7846158 120.669231,64.6923077 C120.823078,64.5999995 120.946153,64.4846161 121.038462,64.3461538 L124.269231,64.5769231 C124.130769,65.0076945 123.923078,65.4230749 123.646154,65.8230769 C123.369229,66.2230789 123.023079,66.5807677 122.607692,66.8961538 C122.192306,67.21154 121.711541,67.4615375 121.165385,67.6461538 C120.619228,67.8307702 120,67.9230769 119.307692,67.9230769 C118.584612,67.9230769 117.903849,67.7807707 117.265385,67.4961538 C116.62692,67.211537 116.065387,66.8192333 115.580769,66.3192308 C115.096151,65.8192283 114.71154,65.2346187 114.426923,64.5653846 C114.142306,63.8961505 114,63.1692347 114,62.3846154 C114,61.5999961 114.142306,60.8730803 114.426923,60.2038462 C114.71154,59.534612 115.099998,58.9500025 115.592308,58.45 C116.084618,57.9499975 116.657689,57.5576937 117.311539,57.2730769 C117.965388,56.9884601 118.669227,56.8461538 119.423077,56.8461538 Z M106.192308,57.0769231 L106.192308,62.7307692 C106.192308,63.4230804 106.373075,63.9615365 106.734615,64.3461538 C107.096156,64.7307712 107.569228,64.9230769 108.153846,64.9230769 C108.738464,64.9230769 109.211537,64.7307712 109.573077,64.3461538 C109.934617,63.9615365 110.115385,63.4230804 110.115385,62.7307692 L110.115385,57.0769231 L113.230769,57.0769231 L113.230769,67.6923077 L110.923077,67.6923077 L110.461538,66.6538462 C110.199999,66.8692318 109.907694,67.0615376 109.584615,67.2307692 C109.307691,67.3846162 108.980771,67.5192302 108.603846,67.6346154 C108.226921,67.7500006 107.807695,67.8076923 107.346154,67.8076923 C106.715381,67.8076923 106.138464,67.7038472 105.615385,67.4961538 C105.092305,67.2884605 104.64231,66.9884635 104.265385,66.5961538 C103.88846,66.2038442 103.596155,65.730772 103.388462,65.1769231 C103.180768,64.6230742 103.076923,64 103.076923,63.3076923 L103.076923,57.0769231 L106.192308,57.0769231 Z M93,53.1538462 C93.6615418,53.1538462 94.2692308,53.2615374 94.8230769,53.4769231 C95.3769258,53.6923088 95.849998,53.9846135 96.2423077,54.3538462 C96.6346173,54.7230788 96.9423066,55.1499976 97.1653846,55.6346154 C97.3884627,56.1192332 97.5,56.6384588 97.5,57.1923077 C97.5,57.6846178 97.4076932,58.1076905 97.2230769,58.4615385 C97.0384606,58.8153864 96.8384626,59.0999989 96.6230769,59.3153846 C96.3615372,59.5769244 96.0769246,59.7923068 95.7692308,59.9615385 C96.2000022,60.1615395 96.5846137,60.4230753 96.9230769,60.7461538 C97.2153861,61.0230783 97.480768,61.3769209 97.7192308,61.8076923 C97.9576935,62.2384637 98.0769231,62.7769198 98.0769231,63.4230769 C98.0769231,64.0076952 97.9615396,64.5576897 97.7307692,65.0730769 C97.4999988,65.5884641 97.173079,66.0384596 96.75,66.4230769 C96.326921,66.8076942 95.826926,67.1153835 95.25,67.3461538 C94.673074,67.5769242 94.038465,67.6923077 93.3461538,67.6923077 L86.7692308,67.6923077 L86.7692308,53.1538462 L93,53.1538462 Z M101.961538,53.1538462 L101.961538,67.6923077 L98.8461539,67.6923077 L98.8461539,53.1538462 L101.961538,53.1538462 Z M93,61.4615385 L90.1153846,61.4615385 L90.1153846,64.9230769 L93,64.9230769 C93.5230795,64.9230769 93.9615385,64.7500017 94.3153846,64.4038462 C94.6692325,64.0576906 94.8461538,63.6538485 94.8461538,63.1923077 C94.8461538,62.7307669 94.6692325,62.3269248 94.3153846,61.9807692 C93.9615385,61.6346137 93.5230795,61.4615385 93,61.4615385 Z M119.423077,59.7307692 C118.838459,59.7307692 118.357694,59.9038444 117.980769,60.25 C117.603844,60.5961556 117.353847,60.9999977 117.230769,61.4615385 L121.615385,61.4615385 C121.492307,60.9999977 121.24231,60.5961556 120.865385,60.25 C120.48846,59.9038444 120.007695,59.7307692 119.423077,59.7307692 Z M63.5431895,50.236499 C66.8917762,50.236499 70.1366915,51.13224 72.666274,53.8587982 C73.6651502,54.9354557 73.5497623,57.3317906 72.2711517,59.9028417 C69.6897335,57.8397806 66.6844334,56.7201293 63.5431895,56.7201293 C60.4019456,56.7201293 57.3540059,57.8397806 54.7725877,59.9028417 C53.9166207,58.5102431 53.4212688,54.9354125 54.4201049,53.8587982 C56.9496874,51.13224 60.1946027,50.236499 63.5431895,50.236499 Z M92.6538462,55.9230769 L90.1153846,55.9230769 L90.1153846,58.9230769 L92.6538462,58.9230769 C93.1153846,58.9230769 93.4999985,58.7730784 93.8076923,58.4730769 C94.1153846,58.1730754 94.2692308,57.8230789 94.2692308,57.4230769 C94.2692308,57.0230749 94.1153846,56.6730784 93.8076923,56.3730769 C93.4999985,56.0730754 93.1153846,55.9230769 92.6538462,55.9230769 Z" id="Combined-Shape"></path>
        </g>
    </g>
</svg>

