<?xml version="1.0" encoding="UTF-8"?>
<svg width="166px" height="30px" viewBox="0 0 166 30" version="1.1" xmlns="http://www.w3.org/2000/svg" xmlns:xlink="http://www.w3.org/1999/xlink">
    <!-- Generator: Sketch 58 (84663) - https://sketch.com -->
    <title>loreal</title>
    <desc>Created with Sketch.</desc>
    <g id="Page-1" stroke="none" stroke-width="1" fill="none" fill-rule="evenodd">
        <g id="Desktop-HD" transform="translate(-74.000000, -106.000000)" fill="#000000" fill-rule="nonzero">
            <g id="loreal" transform="translate(74.000000, 106.000000)">
                <path d="M22.0079444,24.4162568 L22.0079444,27.9339614 L0.00923101399,27.9339614 L0.00923101399,3.74210574 L3.96963692,3.74210574 L3.96963692,24.4162568 L22.0079444,24.4162568 Z M18.9285141,12.5394661 L23.3271943,4.18126543 L19.148094,4.18126543 L15.8481984,12.5394661 L18.9285141,12.5394661 Z M54.8944538,7.71313647 C53.4680702,5.46864084 51.3847178,3.58184786 48.9312672,2.29624326 C46.4778165,1.00975326 43.6542676,0.324451638 40.831604,0.324451638 C38.0089405,0.324451638 35.1845061,1.00975326 32.7319409,2.29624326 C30.2784903,3.58184786 28.1942525,5.46864084 26.7678689,7.71313647 C25.3414853,9.9567467 24.571185,12.558945 24.571185,15.1611433 C24.571185,17.7624562 25.3414853,20.3646545 26.7678689,22.6082647 C28.1942525,24.8527603 30.2776048,26.7395533 32.7319409,28.0251579 C35.1853915,29.3116479 38.0089405,29.9969495 40.831604,29.9969495 C43.6542676,29.9969495 46.4778165,29.3125333 48.9312672,28.0251579 C51.3847178,26.7395533 53.4680702,24.8527603 54.8944538,22.6082647 C56.3217228,20.3646545 57.0911377,17.7615708 57.0911377,15.1611433 C57.0911377,12.5598304 56.3217228,9.9576321 54.8944538,7.71313647 Z M51.4714873,21.0853722 C50.4072333,22.8455526 48.8498101,24.3303728 47.0117143,25.3441588 C45.1736185,26.3570594 43.0557354,26.897155 40.9369669,26.897155 C38.8181985,26.897155 36.7003154,26.3570594 34.8622196,25.3441588 C33.0250092,24.3303728 31.467586,22.846438 30.4024466,21.0853722 C29.3373073,19.3243064 28.7653372,17.2878804 28.7653372,15.2514543 C28.7653372,13.2141429 29.3373073,11.1777169 30.4024466,9.41753651 C31.467586,7.6573561 33.0241238,6.17253592 34.8622196,5.15963532 C36.7003154,4.14584933 38.8190839,3.60575373 40.9369669,3.60575373 C43.05485,3.60575373 45.1736185,4.14584933 47.0117143,5.15963532 C48.8498101,6.17253592 50.4063479,7.6564707 51.4714873,9.41753651 C52.5368722,11.1774606 53.1031113,13.1941898 53.1094821,15.2514543 C53.1027995,17.3086754 52.5365834,19.3253229 51.4714873,21.0853722 Z M84.7068453,14.1748048 C83.9905546,15.7508214 82.6358885,16.6619007 81.5760616,17.2126211 C80.5162347,17.764227 79.7521322,17.9554739 78.9827174,17.9280265 L86.6821785,27.9348468 L82.2826129,27.9348468 L74.8363769,18.2582816 L65.1235102,18.2582816 L65.1235102,27.9348468 L61.1639897,27.9348468 L61.1639897,3.74210574 L77.0020717,3.74210574 C78.6028796,3.74210574 80.226708,4.05730907 81.6592895,4.86302545 C83.0918709,5.66874183 84.3314346,6.89325365 84.9140295,8.62598657 C85.495739,10.3578341 85.4213652,12.5987881 84.7068453,14.1748048 L84.7068453,14.1748048 Z M80.277176,14.0092345 C81.1112252,13.304454 81.6052799,12.145462 81.5618952,10.9962094 C81.5193959,9.84607137 80.9394571,8.70744361 80.1116057,8.01240255 C79.2828688,7.3182469 78.2239273,7.26069573 77.222537,7.26069573 L65.1235102,7.26069573 L65.1235102,14.7388062 L77.222537,14.7388062 C78.2921033,14.7388062 79.4431267,14.7149004 80.277176,14.0092345 L80.277176,14.0092345 Z M107.580336,14.0791813 L107.580336,17.377306 L94.1611744,17.377306 L94.1611744,24.4162568 L112.199482,24.4162568 L112.199482,27.9339614 L90.2007685,27.9339614 L90.2007685,3.74210574 L112.199482,3.74210574 L112.199482,7.26069573 L94.1611744,7.26069573 L94.1611744,14.0791813 L107.580336,14.0791813 L107.580336,14.0791813 Z M107.799916,0.00216508608 L101.85975,0.00216508608 L99.4408302,3.08159538 L107.799916,0.00216508608 Z M119.955609,21.7759862 L116.818627,27.9339614 L112.859992,27.9339614 L125.177713,3.74122033 L129.138119,3.74122033 L141.457611,27.9339614 L137.497205,27.9339614 L134.361995,21.7759862 L119.955609,21.7759862 Z M127.157474,7.62990862 L121.521886,18.6974413 L132.793061,18.6974413 L127.157474,7.62990862 L127.157474,7.62990862 Z M165.434314,24.4162568 L165.434314,27.9339614 L143.437372,27.9339614 L143.437372,3.74210574 L147.396007,3.74210574 L147.396007,24.4162568 L165.434314,24.4162568 Z M163.720175,8.59676828 L163.685644,8.01948577 C163.680332,7.91323746 163.689186,7.80698915 163.645801,7.68657439 C163.602235,7.56261892 163.535869,7.44790535 163.450127,7.34835059 C163.389299,7.27339026 163.302267,7.22433575 163.206641,7.21111319 C163.37759,7.15155208 163.5221,7.0336867 163.614812,6.8782018 C163.718404,6.71263151 163.782153,6.49393707 163.779497,6.25930537 C163.77684,6.02467368 163.705123,5.77321934 163.580281,5.58728479 C163.310233,5.19150982 162.834772,5.12421922 162.418633,5.14369808 L160.666421,5.14369808 L160.666421,9.18556102 L161.34641,9.18556102 L161.34641,7.52543111 L162.362853,7.52543111 C162.473528,7.52543111 162.658577,7.51037927 162.843626,7.6546999 C163.088883,7.94422655 162.979978,8.32494968 163.023363,8.64812163 C163.026904,8.8411394 163.045498,9.02353234 163.125184,9.18556102 L163.889287,9.18556102 L163.889287,9.06071925 C163.750278,9.00316808 163.737883,8.80129628 163.720175,8.59676828 L163.720175,8.59676828 Z M162.879928,6.81622362 C162.669202,6.95080482 162.451393,6.95169022 162.300874,6.94903401 L161.341098,6.94903401 L161.341098,5.71832438 C161.759893,5.72363679 162.181345,5.70061632 162.596599,5.73426162 C162.791247,5.75526045 162.960956,5.87600222 163.044613,6.05300656 C163.132267,6.32039815 163.135809,6.6072686 162.879928,6.81622362 L162.879928,6.81622362 Z" id="Shape"></path>
                <path d="M165.198797,5.44562037 C164.901302,4.93031605 164.465684,4.49469796 163.950379,4.19720268 C163.435075,3.8997074 162.840085,3.74033493 162.245094,3.74033493 C161.650103,3.74033493 161.055113,3.8997074 160.539809,4.19720268 C160.024504,4.49469796 159.588886,4.93031605 159.291391,5.44562037 C158.993896,5.96092469 158.832752,6.55591525 158.832752,7.15090581 C158.832752,7.74589637 158.993896,8.34088692 159.291391,8.85530584 C159.588886,9.36972476 160.024504,9.80622825 160.539809,10.1037235 C161.055113,10.4012188 161.650103,10.5605913 162.245094,10.5605913 C162.840085,10.5605913 163.435075,10.4012188 163.950379,10.1037235 C164.465684,9.80622825 164.901302,9.37061017 165.198797,8.85530584 C165.496292,8.34000152 165.657436,7.74589637 165.657436,7.15090581 C165.657436,6.55591525 165.496292,5.96092469 165.198797,5.44562037 Z M164.790626,8.63395519 C164.534737,9.07314619 164.168859,9.43810838 163.729029,9.69289672 C163.287918,9.94620017 162.78829,10.0798819 162.279625,10.0807031 C161.244717,10.0799958 160.288284,9.52893381 159.768623,8.63395519 C159.252115,7.73860673 159.252115,6.6358079 159.768623,5.74045944 C160.570162,4.35482502 162.342905,3.88082536 163.729029,4.68151791 C164.166418,4.93385766 164.536516,5.30307055 164.790626,5.74045944 C165.043789,6.18066256 165.177477,6.67939923 165.178433,7.18720732 C165.178433,7.69188681 165.043852,8.1965663 164.790626,8.63395519 L164.790626,8.63395519 Z" id="Shape"></path>
            </g>
        </g>
    </g>
</svg>