
<svg width="100px" height="146px" viewBox="0 0 100 146" version="1.1" xmlns="http://www.w3.org/2000/svg" xmlns:xlink="http://www.w3.org/1999/xlink">
    <g id="Page-1" stroke="none" stroke-width="1" fill="none" fill-rule="evenodd">
        <g id="Desktop-HD" transform="translate(-130.000000, -90.000000)" fill="#0A71F2" fill-rule="nonzero">
            <path d="M136.703257,116 C139.581491,133.403282 155.298167,159.831897 184.118385,195.895152 C188.785611,201.737297 191.491478,205.354043 198,212.271808 C193.024923,220.324408 187.530344,227.974628 181.516261,235.222466 C181.484694,235.260508 181.449873,235.295728 181.412193,235.327726 C181.053903,235.631983 180.516803,235.58818 180.212547,235.22989 L180.212547,235.22989 L179.21334,234.049739 C146.404447,195.186762 130,164.379817 130,141.628903 C130,133.098629 131.729771,124.040446 136.703257,116 Z M221.870139,112 C242.573084,137.361831 219.219466,179.34804 201.985154,206 C197.714633,200.971787 193.409394,196.028904 189.177003,190.81166 C187.041743,188.203039 184.982742,185.632223 183,183.13702 C205.801529,153.57264 219.472776,130.290057 221.870139,112 Z M179.790802,90 C192.17545,90 204.176673,93.2433087 213.532258,103.115661 C217.226572,107.014034 216.799813,115.69071 212.07091,125 C202.523612,117.530045 191.408599,113.476 179.790802,113.476 C168.173006,113.476 156.900292,117.530045 147.352994,125 C144.187225,119.957664 142.355181,107.013878 146.049347,103.115661 C155.404932,93.2433087 167.406154,90 179.790802,90 Z" id="monogram_color"></path>
        </g>
    </g>
</svg>

