<?xml version="1.0" encoding="UTF-8"?>
<svg width="66px" height="70px" viewBox="0 0 66 70" version="1.1" xmlns="http://www.w3.org/2000/svg" xmlns:xlink="http://www.w3.org/1999/xlink">
    <!-- Generator: Sketch 58 (84663) - https://sketch.com -->
    <title>Product</title>
    <desc>Created with Sketch.</desc>
    <g id="Page-1" stroke="none" stroke-width="1" fill="none" fill-rule="evenodd">
        <g id="Desktop-HD" transform="translate(-928.000000, -237.000000)" fill="#0A71F2" fill-rule="nonzero">
            <path d="M979.652174,259.351327 L991.646312,252.658737 C991.207816,252.248856 990.728051,251.900457 990.157491,251.564355 L967.109917,238.697164 C965.078652,237.576395 963.047386,237 961.016121,237 C958.984856,237 956.921348,237.576395 954.922325,238.697164 L948.764045,242.155535 L979.652174,259.351327 Z M961.016121,269.694419 L974.719101,262.073193 L943.927699,244.84538 L932.320469,251.313815 C931.546654,251.730101 930.901808,252.146386 930.385931,252.658737 L961.016121,269.694419 Z M963.369809,307 C963.692233,306.935956 964.014656,306.775846 964.337079,306.615737 L989.260381,292.718207 C992.387885,290.956999 994,289.131747 994,284.552608 L994,258.935041 C994,258.134492 993.935515,257.462031 993.774304,256.821592 L963.369809,273.857274 L963.369809,307 Z M958.630191,307 C958.307767,306.935956 958.017587,306.775846 957.695164,306.615737 L932.739619,292.718207 C929.612115,290.956999 928,289.131747 928,284.552608 L928,258.935041 C928,258.134492 928.064485,257.462031 928.225696,256.821592 L958.630191,273.857274 L958.630191,307 Z" id="Product"></path>
        </g>
    </g>
</svg>