<?xml version="1.0" encoding="UTF-8"?>
<svg width="66px" height="60px" viewBox="0 0 66 60" version="1.1" xmlns="http://www.w3.org/2000/svg" xmlns:xlink="http://www.w3.org/1999/xlink">
    <!-- Generator: Sketch 57.1 (83088) - https://sketch.com -->
    <title>Schedule</title>
    <desc>Created with Sketch.</desc>
    <g id="Page-1" stroke="none" stroke-width="1" fill="none" fill-rule="evenodd">
        <g id="Desktop-HD" transform="translate(-868.000000, -432.000000)" fill="#0A71F2" fill-rule="nonzero">
            <path d="M879.161535,492 C871.97063,492 868,488.060448 868,480.900469 L868,443.099531 C868,435.939552 871.97063,432 879.161535,432 L922.86973,432 C930.060635,432 934,435.939552 934,443.099531 L934,480.900469 C934,488.029182 930.060635,492 922.86973,492 L879.161535,492 Z M879.880625,483.620636 L922.119375,483.620636 C924.43297,483.620636 925.652297,482.526316 925.652297,480.087546 L925.652297,452.510683 C925.652297,450.071912 924.43297,448.977592 922.119375,448.977592 L879.880625,448.977592 C877.598295,448.977592 876.378967,450.071912 876.378967,452.510683 L876.378967,480.087546 C876.378967,482.526316 877.598295,483.620636 879.880625,483.620636 Z M895.137849,458.982804 C893.981052,458.982804 893.605874,458.638874 893.605874,457.482022 L893.605874,455.637311 C893.605874,454.511725 893.981052,454.136529 895.137849,454.136529 L896.982473,454.136529 C898.13927,454.136529 898.545713,454.511725 898.545713,455.637311 L898.545713,457.482022 C898.545713,458.638874 898.13927,458.982804 896.982473,458.982804 L895.137849,458.982804 Z M905.048792,458.982804 C903.891994,458.982804 903.485552,458.638874 903.485552,457.482022 L903.485552,455.637311 C903.485552,454.511725 903.891994,454.136529 905.048792,454.136529 L906.862151,454.136529 C908.018948,454.136529 908.425391,454.511725 908.425391,455.637311 L908.425391,457.482022 C908.425391,458.638874 908.018948,458.982804 906.862151,458.982804 L905.048792,458.982804 Z M914.92847,458.982804 C913.771672,458.982804 913.396495,458.638874 913.396495,457.482022 L913.396495,455.637311 C913.396495,454.511725 913.771672,454.136529 914.92847,454.136529 L916.773093,454.136529 C917.929891,454.136529 918.305069,454.511725 918.305069,455.637311 L918.305069,457.482022 C918.305069,458.638874 917.929891,458.982804 916.773093,458.982804 L914.92847,458.982804 Z M885.258171,468.737884 C884.101374,468.737884 883.694931,468.362689 883.694931,467.205836 L883.694931,465.392392 C883.694931,464.235539 884.101374,463.860344 885.258171,463.860344 L887.102795,463.860344 C888.228328,463.860344 888.63477,464.235539 888.63477,465.392392 L888.63477,467.205836 C888.63477,468.362689 888.228328,468.737884 887.102795,468.737884 L885.258171,468.737884 Z M895.137849,468.737884 C893.981052,468.737884 893.605874,468.362689 893.605874,467.205836 L893.605874,465.392392 C893.605874,464.235539 893.981052,463.860344 895.137849,463.860344 L896.982473,463.860344 C898.13927,463.860344 898.545713,464.235539 898.545713,465.392392 L898.545713,467.205836 C898.545713,468.362689 898.13927,468.737884 896.982473,468.737884 L895.137849,468.737884 Z M905.048792,468.737884 C903.891994,468.737884 903.485552,468.362689 903.485552,467.205836 L903.485552,465.392392 C903.485552,464.235539 903.891994,463.860344 905.048792,463.860344 L906.862151,463.860344 C908.018948,463.860344 908.425391,464.235539 908.425391,465.392392 L908.425391,467.205836 C908.425391,468.362689 908.018948,468.737884 906.862151,468.737884 L905.048792,468.737884 Z M914.92847,468.737884 C913.771672,468.737884 913.396495,468.362689 913.396495,467.205836 L913.396495,465.392392 C913.396495,464.235539 913.771672,463.860344 914.92847,463.860344 L916.773093,463.860344 C917.929891,463.860344 918.305069,464.235539 918.305069,465.392392 L918.305069,467.205836 C918.305069,468.362689 917.929891,468.737884 916.773093,468.737884 L914.92847,468.737884 Z M885.258171,478.461699 C884.101374,478.461699 883.694931,478.086503 883.694931,476.960917 L883.694931,475.116206 C883.694931,473.959354 884.101374,473.615425 885.258171,473.615425 L887.102795,473.615425 C888.228328,473.615425 888.63477,473.959354 888.63477,475.116206 L888.63477,476.960917 C888.63477,478.086503 888.228328,478.461699 887.102795,478.461699 L885.258171,478.461699 Z M895.137849,478.461699 C893.981052,478.461699 893.605874,478.086503 893.605874,476.960917 L893.605874,475.116206 C893.605874,473.959354 893.981052,473.615425 895.137849,473.615425 L896.982473,473.615425 C898.13927,473.615425 898.545713,473.959354 898.545713,475.116206 L898.545713,476.960917 C898.545713,478.086503 898.13927,478.461699 896.982473,478.461699 L895.137849,478.461699 Z M905.048792,478.461699 C903.891994,478.461699 903.485552,478.086503 903.485552,476.960917 L903.485552,475.116206 C903.485552,473.959354 903.891994,473.615425 905.048792,473.615425 L906.862151,473.615425 C908.018948,473.615425 908.425391,473.959354 908.425391,475.116206 L908.425391,476.960917 C908.425391,478.086503 908.018948,478.461699 906.862151,478.461699 L905.048792,478.461699 Z" id="Schedule"></path>
        </g>
    </g>
</svg>