<?xml version="1.0" encoding="UTF-8"?>
<svg width="63px" height="70px" viewBox="0 0 63 70" version="1.1" xmlns="http://www.w3.org/2000/svg" xmlns:xlink="http://www.w3.org/1999/xlink">
    <!-- Generator: Sketch 58 (84663) - https://sketch.com -->
    <title>Service</title>
    <desc>Created with Sketch.</desc>
    <g id="Page-1" stroke="none" stroke-width="1" fill="none" fill-rule="evenodd">
        <g id="Desktop-HD" transform="translate(-1014.000000, -237.000000)" fill="#0A71F2" fill-rule="nonzero">
            <path d="M1073.12127,259.495777 L1071.27006,257.869932 L1070.69671,258.586721 C1066.57385,263.650415 1060.26162,269.576014 1058.63479,269.576014 C1058.01772,269.576014 1057.72388,269.221284 1057.72388,268.748311 C1057.72388,268.559122 1057.83672,268.426689 1057.95707,268.260203 L1058.99688,266.747837 C1061.24517,263.433146 1064.51166,258.167511 1064.51166,254.14527 C1064.51166,252.844595 1064.2472,251.691723 1063.3069,250.775338 L1049.93703,239.1875 C1048.35028,237.768581 1046.91045,237 1045.47062,237 C1043.4431,237 1041.62127,238.271115 1041.1805,241.079392 L1041.02449,242.237998 C1040.23994,248.303105 1040.10526,252.605301 1035.29802,258.171964 L1034.83349,258.697635 C1033.98134,259.643581 1033.18797,260.855574 1033.18797,261.949324 C1033.18797,263.900338 1034.15765,264.787162 1036.09701,266.708615 L1054.46222,285.095439 C1055.66698,286.307432 1056.81297,287.164696 1058.19403,287.135135 C1059.57509,287.105574 1060.57416,286.189189 1062.3666,284.208615 C1067.47948,278.532939 1074.0028,276.138514 1076.35354,270.137669 C1076.88246,268.777872 1077,267.713682 1077,266.708615 C1077,264.69848 1075.76586,261.80152 1073.12127,259.495777 Z M1053.31623,289.529561 L1030.74907,266.738176 C1028.2514,264.255068 1025.48927,264.048142 1023.05037,266.738176 L1021.875,268.038851 C1019.55364,270.610642 1019.64179,273.271115 1022.02192,275.754223 L1029.86754,283.972128 L1027.31192,285.298503 C1022.66212,287.68717 1018.32628,289.847908 1016.26259,291.923986 C1014.64646,293.549831 1014,295.678209 1014,297.51098 C1014,302.595439 1018.58396,307 1023.40299,307 C1025.34235,307 1027.48741,306.231419 1029.16231,304.487331 C1031.57183,301.974662 1033.77565,296.505912 1036.71409,290.623311 L1044.64785,298.60473 C1047.14552,301.117399 1050.26026,301.087838 1052.31716,298.634291 L1053.49254,297.244932 C1055.75513,294.525338 1055.72575,291.983108 1053.31623,289.529561 Z M1023.22668,299.994088 C1022.02192,300.023649 1020.9347,298.929899 1020.96409,297.629223 C1020.96409,296.387669 1021.99254,295.353041 1023.22668,295.382601 C1024.43144,295.353041 1025.45989,296.387669 1025.48927,297.629223 C1025.48927,298.929899 1024.40205,300.023649 1023.22668,299.994088 Z" id="Service"></path>
        </g>
    </g>
</svg>