<?xml version="1.0" encoding="UTF-8"?>
<svg width="144px" height="42px" viewBox="0 0 144 42" version="1.1" xmlns="http://www.w3.org/2000/svg" xmlns:xlink="http://www.w3.org/1999/xlink">
    <!-- Generator: Sketch 58 (84663) - https://sketch.com -->
    <title>Stepper</title>
    <desc>Created with Sketch.</desc>
    <g id="Page-1" stroke="none" stroke-width="1" fill="none" fill-rule="evenodd">
        <g id="Artboard" transform="translate(-533.000000, -560.000000)">
            <g id="Stepper" transform="translate(533.000000, 561.000000)">
                <path d="M18.8679245,38.7061995 C8.54605993,38.7061995 0,30.1601395 0,19.8382749 C0,9.5349083 8.52756197,0.970350404 18.8494266,0.970350404 C29.1527932,0.970350404 37.7358491,9.5349083 37.7358491,19.8382749 C37.7358491,30.1601395 29.1712912,38.7061995 18.8679245,38.7061995 Z M18.8124306,29.0502616 C19.8483167,29.0502616 20.4772475,28.328841 20.4772475,27.2189631 L20.4772475,21.4660959 L26.5630781,21.4660959 C27.654458,21.4660959 28.3943766,20.892659 28.3943766,19.8752709 C28.3943766,18.8208868 27.6914539,18.228952 26.5630781,18.228952 L20.4772475,18.228952 L20.4772475,12.1061255 C20.4772475,10.9962476 19.8483167,10.2748269 18.8124306,10.2748269 C17.7765446,10.2748269 17.2216056,11.0332435 17.2216056,12.1061255 L17.2216056,18.228952 L11.154273,18.228952 C10.0073992,18.228952 9.30447651,18.8208868 9.30447651,19.8752709 C9.30447651,20.892659 10.0628931,21.4660959 11.154273,21.4660959 L17.2216056,21.4660959 L17.2216056,27.2189631 C17.2216056,28.291845 17.7765446,29.0502616 18.8124306,29.0502616 Z" id="plus" fill="#0A71F2" fill-rule="nonzero"></path>
                <path d="M124.528302,38.7061995 C114.206437,38.7061995 105.660377,30.1601395 105.660377,19.8382749 C105.660377,9.5349083 114.187939,0.970350404 124.509804,0.970350404 C134.813171,0.970350404 143.396226,9.5349083 143.396226,19.8382749 C143.396226,30.1601395 134.831669,38.7061995 124.528302,38.7061995 Z M116.703663,21.4845938 L132.334443,21.4845938 C133.425823,21.4845938 134.165742,20.9111569 134.165742,19.8752709 C134.165742,18.8208868 133.462819,18.228952 132.334443,18.228952 L116.703663,18.228952 C115.575287,18.228952 114.853866,18.8208868 114.853866,19.8752709 C114.853866,20.9111569 115.612283,21.4845938 116.703663,21.4845938 Z" id="minus" fill="#0A71F2" fill-rule="nonzero"></path>
                <path d="M60.7246305,-1.13686838e-13 L82.6715959,-1.13686838e-13 L83.4049583,0.00341619004 C87.6873921,0.0446994301 89.8881961,0.465333738 92.0433794,1.54618779 L92.3932883,1.72755931 C94.5302444,2.87041596 96.213142,4.55331351 97.3559986,6.69026964 L97.5373702,7.04017858 C98.6782717,9.3150943 99.083558,11.6408404 99.083558,16.4119621 L99.083558,23.2645878 C99.083558,28.0357094 98.6782717,30.3614556 97.5373702,32.6363713 L97.3559986,32.9862802 C96.213142,35.1232364 94.5302444,36.8061339 92.3932883,37.9489906 L92.0433794,38.1303621 C89.7684637,39.2712636 87.4427175,39.6765499 82.6715959,39.6765499 L60.7246305,39.6765499 C55.9535089,39.6765499 53.6277628,39.2712636 51.352847,38.1303621 L51.0029381,37.9489906 C48.865982,36.8061339 47.1830844,35.1232364 46.0402278,32.9862802 L45.8588562,32.6363713 C44.7179548,30.3614556 44.3126685,28.0357094 44.3126685,23.2645878 L44.3126685,16.4119621 C44.3126685,11.6408404 44.7179548,9.3150943 45.8588562,7.04017858 L46.0402278,6.69026964 C47.1830844,4.55331351 48.865982,2.87041596 51.0029381,1.72755931 C53.2789377,0.510341389 55.4829706,0.0456786142 60.0095818,0.00324207447 L60.7246305,-1.13686838e-13 Z" id="Rectangle" stroke="#DEDEDE" stroke-width="1.71428571" fill="#FFFFFF"></path>
            </g>
        </g>
    </g>
</svg>