<?xml version="1.0" encoding="UTF-8"?>
<svg width="83px" height="40px" viewBox="0 0 83 40" version="1.1" xmlns="http://www.w3.org/2000/svg" xmlns:xlink="http://www.w3.org/1999/xlink">
    <!-- Generator: Sketch 58 (84663) - https://sketch.com -->
    <title>Textfield</title>
    <desc>Created with Sketch.</desc>
    <g id="Page-1" stroke="none" stroke-width="1" fill="none" fill-rule="evenodd">
        <g id="Artboard" transform="translate(-724.000000, -561.000000)">
            <g id="Textfield" transform="translate(724.000000, 561.000000)">
                <path d="M79.7689642,0 C81.0449397,-2.34392906e-16 82.0793223,1.03438256 82.0793223,2.31035811 L82.0793223,37.4278013 C82.0793223,38.7037769 81.0449397,39.7381594 79.7689642,39.7381594 C78.4929886,39.7381594 77.4586061,38.7037769 77.4586061,37.4278013 L77.4586061,2.31035811 C77.4586061,1.03438256 78.4929886,-6.53785514e-16 79.7689642,0 Z" id="Rectangle" fill="#CDCDCD"></path>
                <path d="M16.9457066,20.9996149 L13.8405853,11.6842511 L10.735464,20.9996149 L16.9457066,20.9996149 Z M8.96110897,26.5444744 L7.18675395,31.8675395 L0.532922603,31.8675395 L10.5136696,3.92144782 L17.167501,3.92144782 L27.148248,31.8675395 L20.4944166,31.8675395 L18.7200616,26.5444744 L8.96110897,26.5444744 Z M40.2341163,32.0893338 C39.3469343,32.0893338 38.5484826,31.9784378 37.838737,31.7566423 C37.1289914,31.5348468 36.5227595,31.2760893 36.0200231,30.980362 C35.4285685,30.6550619 34.9110534,30.2854083 34.4674625,29.8713901 L33.5802849,31.8675395 L29.1443974,31.8675395 L29.1443974,3.92144782 L35.1328456,3.92144782 L35.1328456,13.0150173 C35.4532169,12.743934 35.8249249,12.4933903 36.2479776,12.2633812 L36.5079707,12.1278398 C36.9515617,11.891258 37.491256,11.6842519 38.1270697,11.5068156 C38.7628834,11.3293792 39.4652253,11.2406623 40.2341163,11.2406623 C41.5057437,11.2406623 42.7182076,11.4994198 43.8715441,12.0169426 C45.0248806,12.5344654 46.0377315,13.2589865 46.9101271,14.1905275 C47.7825227,15.1220686 48.4774714,16.2236363 48.9949942,17.4952638 C49.512517,18.7668912 49.7712745,20.1567888 49.7712745,21.6649981 C49.7712745,23.1732074 49.512517,24.5631049 48.9949942,25.8347324 C48.4774714,27.1063598 47.7825227,28.2079276 46.9101271,29.1394686 C46.0377315,30.0710097 45.0248806,30.7955307 43.8715441,31.3130535 C42.7182076,31.8305763 41.5057437,32.0893338 40.2341163,32.0893338 Z M43.7828263,21.6649981 C43.7828263,20.2159342 43.3540282,19.0404358 42.4964189,18.1384675 C41.6388097,17.2364991 40.5889935,16.7855218 39.3469388,16.7855218 C38.104884,16.7855218 37.0550678,17.2364991 36.1974586,18.1384675 C35.3398494,19.0404358 34.9110512,20.2159342 34.9110512,21.6649981 C34.9110512,23.1140619 35.3398494,24.2895604 36.1974586,25.1915287 C37.0550678,26.093497 38.104884,26.5444744 39.3469388,26.5444744 C40.5889935,26.5444744 41.6388097,26.093497 42.4964189,25.1915287 C43.3540282,24.2895604 43.7828263,23.1140619 43.7828263,21.6649981 Z M62.8571429,11.0188679 C63.8626157,11.0188679 64.7793567,11.129764 65.6073931,11.3515595 C66.4354296,11.573355 67.1747368,11.8764709 67.8253369,12.2609164 C68.475937,12.645362 69.0452036,13.0741601 69.5331536,13.5473238 C70.0211037,14.0204875 70.4425088,14.5084303 70.7973816,15.0111667 C71.6254181,16.194076 72.23165,17.524829 72.6160955,19.0034655 L66.6276473,19.4470543 C66.4206382,18.9147451 66.1544876,18.4415885 65.8291875,18.0275703 C65.5334602,17.6726975 65.1416274,17.3400093 64.6536773,17.0294956 C64.1657272,16.7189819 63.5668884,16.5637274 62.8571429,16.5637274 C61.6150881,16.5637274 60.5652719,17.0220978 59.7076627,17.9388525 C58.8500535,18.8556072 58.4212553,20.0976433 58.4212553,21.6649981 C58.4212553,23.2323529 58.8500535,24.4743889 59.7076627,25.3911436 C60.5652719,26.3078983 61.6150881,26.7662688 62.8571429,26.7662688 C63.5668884,26.7662688 64.1657272,26.6184073 64.6536773,26.32268 C65.1416274,26.0269527 65.5334602,25.7016575 65.8291875,25.3467848 C66.1544876,24.9327665 66.4206382,24.4448238 66.6276473,23.8829419 L72.6160955,24.3265306 C72.23165,25.8051672 71.6254181,27.1359202 70.7973816,28.3188294 C70.4425088,28.8215659 70.0211037,29.3095086 69.5331536,29.7826723 C69.0452036,30.255836 68.475937,30.6846342 67.8253369,31.0690797 C67.1747368,31.4535252 66.4354296,31.7566412 65.6073931,31.9784367 C64.7793567,32.2002321 63.8626157,32.3111282 62.8571429,32.3111282 C61.408079,32.3111282 60.0551468,32.0375846 58.7983057,31.490489 C57.5414646,30.9433935 56.4398969,30.1893001 55.4935695,29.2281864 C54.5472421,28.2670726 53.8005418,27.1433256 53.2534463,25.8569118 C52.7063507,24.570498 52.4328071,23.1732074 52.4328071,21.6649981 C52.4328071,20.1567888 52.7063507,18.7594982 53.2534463,17.4730843 C53.8005418,16.1866705 54.5472421,15.0629236 55.4935695,14.1018098 C56.4398969,13.140696 57.5414646,12.3866027 58.7983057,11.8395071 C60.0551468,11.2924116 61.408079,11.0188679 62.8571429,11.0188679 Z" id="Abc" fill="#888888" fill-rule="nonzero"></path>
            </g>
        </g>
    </g>
</svg>